<mxfile host="app.diagrams.net" modified="2023-11-19T17:47:46.684Z" agent="Mozilla/5.0 (Windows NT 10.0; Win64; x64) AppleWebKit/537.36 (KHTML, like Gecko) Chrome/119.0.0.0 Safari/537.36" etag="DYhb3NADRjw5nbuPnNaf" version="21.6.8" type="device">
  <diagram name="Page-1" id="10kaybJQUF8ctmf4FGHN">
    <mxGraphModel dx="2770" dy="1883" grid="1" gridSize="10" guides="1" tooltips="1" connect="1" arrows="1" fold="1" page="1" pageScale="1" pageWidth="850" pageHeight="1100" math="0" shadow="0">
      <root>
        <mxCell id="0" />
        <mxCell id="1" parent="0" />
        <mxCell id="NLQhdIlpftVUfZZyK4by-84" style="edgeStyle=orthogonalEdgeStyle;rounded=0;orthogonalLoop=1;jettySize=auto;html=1;exitX=0.5;exitY=1;exitDx=0;exitDy=0;entryX=0.5;entryY=0;entryDx=0;entryDy=0;" edge="1" parent="1" source="NLQhdIlpftVUfZZyK4by-1" target="NLQhdIlpftVUfZZyK4by-83">
          <mxGeometry relative="1" as="geometry" />
        </mxCell>
        <mxCell id="NLQhdIlpftVUfZZyK4by-1" value="Login" style="rounded=1;whiteSpace=wrap;html=1;fillColor=#dae8fc;strokeColor=#6c8ebf;" vertex="1" parent="1">
          <mxGeometry x="80" y="200" width="120" height="40" as="geometry" />
        </mxCell>
        <mxCell id="NLQhdIlpftVUfZZyK4by-2" value="User UI Action" style="rounded=1;whiteSpace=wrap;html=1;fillColor=#dae8fc;strokeColor=#6c8ebf;" vertex="1" parent="1">
          <mxGeometry x="80" y="40" width="120" height="40" as="geometry" />
        </mxCell>
        <mxCell id="NLQhdIlpftVUfZZyK4by-3" value="Decision" style="rhombus;whiteSpace=wrap;html=1;fillColor=#f5f5f5;fontColor=#333333;strokeColor=#666666;fontSize=10;" vertex="1" parent="1">
          <mxGeometry x="240" y="40" width="120" height="40" as="geometry" />
        </mxCell>
        <mxCell id="NLQhdIlpftVUfZZyK4by-4" value="System Action" style="ellipse;whiteSpace=wrap;html=1;fillColor=#f8cecc;strokeColor=#b85450;" vertex="1" parent="1">
          <mxGeometry x="400" y="40" width="120" height="40" as="geometry" />
        </mxCell>
        <mxCell id="NLQhdIlpftVUfZZyK4by-6" value="System Output" style="rounded=0;whiteSpace=wrap;html=1;fillColor=#d5e8d4;strokeColor=#82b366;" vertex="1" parent="1">
          <mxGeometry x="560" y="40" width="120" height="40" as="geometry" />
        </mxCell>
        <mxCell id="NLQhdIlpftVUfZZyK4by-11" style="edgeStyle=orthogonalEdgeStyle;rounded=0;orthogonalLoop=1;jettySize=auto;html=1;exitX=1;exitY=0.5;exitDx=0;exitDy=0;entryX=0.5;entryY=0;entryDx=0;entryDy=0;" edge="1" parent="1" source="NLQhdIlpftVUfZZyK4by-7" target="NLQhdIlpftVUfZZyK4by-8">
          <mxGeometry relative="1" as="geometry" />
        </mxCell>
        <mxCell id="NLQhdIlpftVUfZZyK4by-14" style="edgeStyle=orthogonalEdgeStyle;rounded=0;orthogonalLoop=1;jettySize=auto;html=1;exitX=0.5;exitY=1;exitDx=0;exitDy=0;entryX=0.5;entryY=0;entryDx=0;entryDy=0;" edge="1" parent="1" source="NLQhdIlpftVUfZZyK4by-7" target="NLQhdIlpftVUfZZyK4by-12">
          <mxGeometry relative="1" as="geometry" />
        </mxCell>
        <mxCell id="NLQhdIlpftVUfZZyK4by-7" value="Are username &lt;br style=&quot;font-size: 10px;&quot;&gt;and password &lt;br style=&quot;font-size: 10px;&quot;&gt;boxes filled" style="rhombus;whiteSpace=wrap;html=1;perimeterSpacing=0;fontSize=10;fillColor=#f5f5f5;fontColor=#333333;strokeColor=#666666;" vertex="1" parent="1">
          <mxGeometry x="80" y="480" width="120" height="80" as="geometry" />
        </mxCell>
        <mxCell id="NLQhdIlpftVUfZZyK4by-9" style="edgeStyle=orthogonalEdgeStyle;rounded=0;orthogonalLoop=1;jettySize=auto;html=1;exitX=1;exitY=0.5;exitDx=0;exitDy=0;entryX=1;entryY=0.5;entryDx=0;entryDy=0;" edge="1" parent="1" source="NLQhdIlpftVUfZZyK4by-8" target="NLQhdIlpftVUfZZyK4by-79">
          <mxGeometry relative="1" as="geometry" />
        </mxCell>
        <mxCell id="NLQhdIlpftVUfZZyK4by-8" value="Error Message" style="rounded=0;whiteSpace=wrap;html=1;fillColor=#d5e8d4;strokeColor=#82b366;" vertex="1" parent="1">
          <mxGeometry x="240" y="620" width="120" height="40" as="geometry" />
        </mxCell>
        <mxCell id="NLQhdIlpftVUfZZyK4by-15" style="edgeStyle=orthogonalEdgeStyle;rounded=0;orthogonalLoop=1;jettySize=auto;html=1;exitX=0.5;exitY=1;exitDx=0;exitDy=0;" edge="1" parent="1" source="NLQhdIlpftVUfZZyK4by-12" target="NLQhdIlpftVUfZZyK4by-13">
          <mxGeometry relative="1" as="geometry" />
        </mxCell>
        <mxCell id="NLQhdIlpftVUfZZyK4by-17" style="edgeStyle=orthogonalEdgeStyle;rounded=0;orthogonalLoop=1;jettySize=auto;html=1;exitX=1;exitY=0.5;exitDx=0;exitDy=0;entryX=0;entryY=0.5;entryDx=0;entryDy=0;" edge="1" parent="1" source="NLQhdIlpftVUfZZyK4by-12" target="NLQhdIlpftVUfZZyK4by-8">
          <mxGeometry relative="1" as="geometry" />
        </mxCell>
        <mxCell id="NLQhdIlpftVUfZZyK4by-12" value="Does the&lt;br style=&quot;font-size: 10px;&quot;&gt;username&lt;br style=&quot;font-size: 10px;&quot;&gt;exist" style="rhombus;whiteSpace=wrap;html=1;fontSize=10;fillColor=#f5f5f5;fontColor=#333333;strokeColor=#666666;" vertex="1" parent="1">
          <mxGeometry x="80" y="600" width="120" height="80" as="geometry" />
        </mxCell>
        <mxCell id="NLQhdIlpftVUfZZyK4by-16" style="edgeStyle=orthogonalEdgeStyle;rounded=0;orthogonalLoop=1;jettySize=auto;html=1;exitX=1;exitY=0.5;exitDx=0;exitDy=0;entryX=0.5;entryY=1;entryDx=0;entryDy=0;" edge="1" parent="1" source="NLQhdIlpftVUfZZyK4by-13" target="NLQhdIlpftVUfZZyK4by-8">
          <mxGeometry relative="1" as="geometry" />
        </mxCell>
        <mxCell id="NLQhdIlpftVUfZZyK4by-19" style="edgeStyle=orthogonalEdgeStyle;rounded=0;orthogonalLoop=1;jettySize=auto;html=1;exitX=0.5;exitY=1;exitDx=0;exitDy=0;entryX=0.5;entryY=0;entryDx=0;entryDy=0;" edge="1" parent="1" source="NLQhdIlpftVUfZZyK4by-13" target="NLQhdIlpftVUfZZyK4by-18">
          <mxGeometry relative="1" as="geometry" />
        </mxCell>
        <mxCell id="NLQhdIlpftVUfZZyK4by-13" value="Does the &lt;br&gt;password match the user&#39;s" style="rhombus;whiteSpace=wrap;html=1;fontSize=10;fillColor=#f5f5f5;fontColor=#333333;strokeColor=#666666;" vertex="1" parent="1">
          <mxGeometry x="80" y="720" width="120" height="80" as="geometry" />
        </mxCell>
        <mxCell id="NLQhdIlpftVUfZZyK4by-21" style="edgeStyle=orthogonalEdgeStyle;rounded=0;orthogonalLoop=1;jettySize=auto;html=1;exitX=0.5;exitY=1;exitDx=0;exitDy=0;entryX=0.5;entryY=0;entryDx=0;entryDy=0;" edge="1" parent="1" source="NLQhdIlpftVUfZZyK4by-18" target="NLQhdIlpftVUfZZyK4by-20">
          <mxGeometry relative="1" as="geometry" />
        </mxCell>
        <mxCell id="NLQhdIlpftVUfZZyK4by-18" value="Login Successful!" style="rounded=0;whiteSpace=wrap;html=1;fillColor=#d5e8d4;strokeColor=#82b366;" vertex="1" parent="1">
          <mxGeometry x="80" y="840" width="120" height="40" as="geometry" />
        </mxCell>
        <mxCell id="NLQhdIlpftVUfZZyK4by-59" style="edgeStyle=orthogonalEdgeStyle;rounded=0;orthogonalLoop=1;jettySize=auto;html=1;exitX=0.5;exitY=1;exitDx=0;exitDy=0;entryX=0.5;entryY=0;entryDx=0;entryDy=0;" edge="1" parent="1" source="NLQhdIlpftVUfZZyK4by-20" target="NLQhdIlpftVUfZZyK4by-58">
          <mxGeometry relative="1" as="geometry" />
        </mxCell>
        <mxCell id="NLQhdIlpftVUfZZyK4by-20" value="Set Logged in variables" style="ellipse;whiteSpace=wrap;html=1;fillColor=#f8cecc;strokeColor=#b85450;" vertex="1" parent="1">
          <mxGeometry x="80" y="920" width="120" height="40" as="geometry" />
        </mxCell>
        <mxCell id="NLQhdIlpftVUfZZyK4by-96" style="edgeStyle=orthogonalEdgeStyle;rounded=0;orthogonalLoop=1;jettySize=auto;html=1;exitX=0.5;exitY=1;exitDx=0;exitDy=0;entryX=0.5;entryY=0;entryDx=0;entryDy=0;" edge="1" parent="1" source="NLQhdIlpftVUfZZyK4by-22" target="NLQhdIlpftVUfZZyK4by-95">
          <mxGeometry relative="1" as="geometry" />
        </mxCell>
        <mxCell id="NLQhdIlpftVUfZZyK4by-22" value="Create Account" style="rounded=1;whiteSpace=wrap;html=1;fillColor=#dae8fc;strokeColor=#6c8ebf;" vertex="1" parent="1">
          <mxGeometry x="480" y="200" width="120" height="40" as="geometry" />
        </mxCell>
        <mxCell id="NLQhdIlpftVUfZZyK4by-23" value="Yes" style="text;html=1;strokeColor=none;fillColor=none;align=center;verticalAlign=middle;whiteSpace=wrap;rounded=0;" vertex="1" parent="1">
          <mxGeometry x="210" y="60" width="30" height="20" as="geometry" />
        </mxCell>
        <mxCell id="NLQhdIlpftVUfZZyK4by-24" value="No" style="text;html=1;strokeColor=none;fillColor=none;align=center;verticalAlign=middle;whiteSpace=wrap;rounded=0;" vertex="1" parent="1">
          <mxGeometry x="210" y="40" width="30" height="20" as="geometry" />
        </mxCell>
        <mxCell id="NLQhdIlpftVUfZZyK4by-26" value="Yes" style="text;html=1;strokeColor=none;fillColor=none;align=center;verticalAlign=middle;whiteSpace=wrap;rounded=0;" vertex="1" parent="1">
          <mxGeometry x="100" y="560" width="30" height="20" as="geometry" />
        </mxCell>
        <mxCell id="NLQhdIlpftVUfZZyK4by-27" value="Yes" style="text;html=1;strokeColor=none;fillColor=none;align=center;verticalAlign=middle;whiteSpace=wrap;rounded=0;" vertex="1" parent="1">
          <mxGeometry x="100" y="680" width="30" height="20" as="geometry" />
        </mxCell>
        <mxCell id="NLQhdIlpftVUfZZyK4by-28" value="Yes" style="text;html=1;strokeColor=none;fillColor=none;align=center;verticalAlign=middle;whiteSpace=wrap;rounded=0;" vertex="1" parent="1">
          <mxGeometry x="100" y="800" width="30" height="20" as="geometry" />
        </mxCell>
        <mxCell id="NLQhdIlpftVUfZZyK4by-29" value="No" style="text;html=1;strokeColor=none;fillColor=none;align=center;verticalAlign=middle;whiteSpace=wrap;rounded=0;" vertex="1" parent="1">
          <mxGeometry x="200" y="490" width="30" height="20" as="geometry" />
        </mxCell>
        <mxCell id="NLQhdIlpftVUfZZyK4by-30" value="No" style="text;html=1;strokeColor=none;fillColor=none;align=center;verticalAlign=middle;whiteSpace=wrap;rounded=0;" vertex="1" parent="1">
          <mxGeometry x="200" y="610" width="30" height="20" as="geometry" />
        </mxCell>
        <mxCell id="NLQhdIlpftVUfZZyK4by-31" value="No" style="text;html=1;strokeColor=none;fillColor=none;align=center;verticalAlign=middle;whiteSpace=wrap;rounded=0;" vertex="1" parent="1">
          <mxGeometry x="200" y="730" width="30" height="20" as="geometry" />
        </mxCell>
        <mxCell id="NLQhdIlpftVUfZZyK4by-32" style="edgeStyle=orthogonalEdgeStyle;rounded=0;orthogonalLoop=1;jettySize=auto;html=1;exitX=1;exitY=0.5;exitDx=0;exitDy=0;entryX=0.5;entryY=0;entryDx=0;entryDy=0;" edge="1" parent="1" source="NLQhdIlpftVUfZZyK4by-34" target="NLQhdIlpftVUfZZyK4by-35">
          <mxGeometry relative="1" as="geometry" />
        </mxCell>
        <mxCell id="NLQhdIlpftVUfZZyK4by-33" style="edgeStyle=orthogonalEdgeStyle;rounded=0;orthogonalLoop=1;jettySize=auto;html=1;exitX=0.5;exitY=1;exitDx=0;exitDy=0;entryX=0.5;entryY=0;entryDx=0;entryDy=0;" edge="1" parent="1" source="NLQhdIlpftVUfZZyK4by-34" target="NLQhdIlpftVUfZZyK4by-38">
          <mxGeometry relative="1" as="geometry" />
        </mxCell>
        <mxCell id="NLQhdIlpftVUfZZyK4by-34" value="Are username &lt;br style=&quot;font-size: 10px;&quot;&gt;and password &lt;br style=&quot;font-size: 10px;&quot;&gt;boxes filled" style="rhombus;whiteSpace=wrap;html=1;perimeterSpacing=0;fontSize=10;fillColor=#f5f5f5;fontColor=#333333;strokeColor=#666666;" vertex="1" parent="1">
          <mxGeometry x="480" y="360" width="120" height="80" as="geometry" />
        </mxCell>
        <mxCell id="NLQhdIlpftVUfZZyK4by-76" style="edgeStyle=orthogonalEdgeStyle;rounded=0;orthogonalLoop=1;jettySize=auto;html=1;exitX=1;exitY=0.5;exitDx=0;exitDy=0;entryX=1;entryY=0.5;entryDx=0;entryDy=0;" edge="1" parent="1" source="NLQhdIlpftVUfZZyK4by-35" target="NLQhdIlpftVUfZZyK4by-95">
          <mxGeometry relative="1" as="geometry" />
        </mxCell>
        <mxCell id="NLQhdIlpftVUfZZyK4by-35" value="Error Message" style="rounded=0;whiteSpace=wrap;html=1;fillColor=#d5e8d4;strokeColor=#82b366;" vertex="1" parent="1">
          <mxGeometry x="640" y="500" width="120" height="40" as="geometry" />
        </mxCell>
        <mxCell id="NLQhdIlpftVUfZZyK4by-37" style="edgeStyle=orthogonalEdgeStyle;rounded=0;orthogonalLoop=1;jettySize=auto;html=1;exitX=1;exitY=0.5;exitDx=0;exitDy=0;entryX=0;entryY=0.5;entryDx=0;entryDy=0;" edge="1" parent="1" source="NLQhdIlpftVUfZZyK4by-38" target="NLQhdIlpftVUfZZyK4by-35">
          <mxGeometry relative="1" as="geometry" />
        </mxCell>
        <mxCell id="NLQhdIlpftVUfZZyK4by-48" style="edgeStyle=orthogonalEdgeStyle;rounded=0;orthogonalLoop=1;jettySize=auto;html=1;exitX=0.5;exitY=1;exitDx=0;exitDy=0;entryX=0.5;entryY=0;entryDx=0;entryDy=0;" edge="1" parent="1" source="NLQhdIlpftVUfZZyK4by-38" target="NLQhdIlpftVUfZZyK4by-46">
          <mxGeometry relative="1" as="geometry" />
        </mxCell>
        <mxCell id="NLQhdIlpftVUfZZyK4by-38" value="Does the&lt;br style=&quot;font-size: 10px;&quot;&gt;username&lt;br style=&quot;font-size: 10px;&quot;&gt;exist" style="rhombus;whiteSpace=wrap;html=1;fontSize=10;fillColor=#f5f5f5;fontColor=#333333;strokeColor=#666666;" vertex="1" parent="1">
          <mxGeometry x="480" y="480" width="120" height="80" as="geometry" />
        </mxCell>
        <mxCell id="NLQhdIlpftVUfZZyK4by-41" value="Yes" style="text;html=1;strokeColor=none;fillColor=none;align=center;verticalAlign=middle;whiteSpace=wrap;rounded=0;" vertex="1" parent="1">
          <mxGeometry x="500" y="440" width="30" height="20" as="geometry" />
        </mxCell>
        <mxCell id="NLQhdIlpftVUfZZyK4by-42" value="Yes" style="text;html=1;strokeColor=none;fillColor=none;align=center;verticalAlign=middle;whiteSpace=wrap;rounded=0;" vertex="1" parent="1">
          <mxGeometry x="605" y="490" width="30" height="20" as="geometry" />
        </mxCell>
        <mxCell id="NLQhdIlpftVUfZZyK4by-43" value="No" style="text;html=1;strokeColor=none;fillColor=none;align=center;verticalAlign=middle;whiteSpace=wrap;rounded=0;" vertex="1" parent="1">
          <mxGeometry x="600" y="370" width="30" height="20" as="geometry" />
        </mxCell>
        <mxCell id="NLQhdIlpftVUfZZyK4by-44" value="No" style="text;html=1;strokeColor=none;fillColor=none;align=center;verticalAlign=middle;whiteSpace=wrap;rounded=0;" vertex="1" parent="1">
          <mxGeometry x="500" y="560" width="30" height="20" as="geometry" />
        </mxCell>
        <mxCell id="NLQhdIlpftVUfZZyK4by-56" style="edgeStyle=orthogonalEdgeStyle;rounded=0;orthogonalLoop=1;jettySize=auto;html=1;exitX=0.5;exitY=1;exitDx=0;exitDy=0;entryX=0.5;entryY=0;entryDx=0;entryDy=0;" edge="1" parent="1" source="NLQhdIlpftVUfZZyK4by-46" target="NLQhdIlpftVUfZZyK4by-51">
          <mxGeometry relative="1" as="geometry" />
        </mxCell>
        <mxCell id="NLQhdIlpftVUfZZyK4by-46" value="Create new User" style="ellipse;whiteSpace=wrap;html=1;fillColor=#f8cecc;strokeColor=#b85450;" vertex="1" parent="1">
          <mxGeometry x="480" y="600" width="120" height="40" as="geometry" />
        </mxCell>
        <mxCell id="NLQhdIlpftVUfZZyK4by-54" style="edgeStyle=orthogonalEdgeStyle;rounded=0;orthogonalLoop=1;jettySize=auto;html=1;exitX=0.5;exitY=1;exitDx=0;exitDy=0;entryX=0.5;entryY=0;entryDx=0;entryDy=0;" edge="1" parent="1" source="NLQhdIlpftVUfZZyK4by-51" target="NLQhdIlpftVUfZZyK4by-52">
          <mxGeometry relative="1" as="geometry" />
        </mxCell>
        <mxCell id="NLQhdIlpftVUfZZyK4by-62" style="edgeStyle=orthogonalEdgeStyle;rounded=0;orthogonalLoop=1;jettySize=auto;html=1;exitX=1;exitY=0.5;exitDx=0;exitDy=0;entryX=1;entryY=0.5;entryDx=0;entryDy=0;" edge="1" parent="1" source="NLQhdIlpftVUfZZyK4by-51" target="NLQhdIlpftVUfZZyK4by-60">
          <mxGeometry relative="1" as="geometry">
            <Array as="points">
              <mxPoint x="640" y="700" />
              <mxPoint x="640" y="940" />
            </Array>
          </mxGeometry>
        </mxCell>
        <mxCell id="NLQhdIlpftVUfZZyK4by-51" value="Login using details?" style="rhombus;whiteSpace=wrap;html=1;fillColor=#f5f5f5;fontColor=#333333;strokeColor=#666666;fontSize=10;" vertex="1" parent="1">
          <mxGeometry x="480" y="680" width="120" height="40" as="geometry" />
        </mxCell>
        <mxCell id="NLQhdIlpftVUfZZyK4by-55" style="edgeStyle=orthogonalEdgeStyle;rounded=0;orthogonalLoop=1;jettySize=auto;html=1;exitX=0.5;exitY=1;exitDx=0;exitDy=0;entryX=0.5;entryY=0;entryDx=0;entryDy=0;" edge="1" parent="1" source="NLQhdIlpftVUfZZyK4by-52" target="NLQhdIlpftVUfZZyK4by-53">
          <mxGeometry relative="1" as="geometry" />
        </mxCell>
        <mxCell id="NLQhdIlpftVUfZZyK4by-52" value="Login Successful!" style="rounded=0;whiteSpace=wrap;html=1;fillColor=#d5e8d4;strokeColor=#82b366;" vertex="1" parent="1">
          <mxGeometry x="480" y="760" width="120" height="40" as="geometry" />
        </mxCell>
        <mxCell id="NLQhdIlpftVUfZZyK4by-61" style="edgeStyle=orthogonalEdgeStyle;rounded=0;orthogonalLoop=1;jettySize=auto;html=1;exitX=0.5;exitY=1;exitDx=0;exitDy=0;entryX=0.5;entryY=0;entryDx=0;entryDy=0;" edge="1" parent="1" source="NLQhdIlpftVUfZZyK4by-53" target="NLQhdIlpftVUfZZyK4by-60">
          <mxGeometry relative="1" as="geometry" />
        </mxCell>
        <mxCell id="NLQhdIlpftVUfZZyK4by-53" value="Set Logged in variables" style="ellipse;whiteSpace=wrap;html=1;fillColor=#f8cecc;strokeColor=#b85450;" vertex="1" parent="1">
          <mxGeometry x="480" y="840" width="120" height="40" as="geometry" />
        </mxCell>
        <mxCell id="NLQhdIlpftVUfZZyK4by-58" value="Close Window" style="ellipse;whiteSpace=wrap;html=1;fillColor=#dae8fc;strokeColor=#6c8ebf;" vertex="1" parent="1">
          <mxGeometry x="80" y="1000" width="120" height="40" as="geometry" />
        </mxCell>
        <mxCell id="NLQhdIlpftVUfZZyK4by-60" value="Close Window" style="ellipse;whiteSpace=wrap;html=1;fillColor=#dae8fc;strokeColor=#6c8ebf;" vertex="1" parent="1">
          <mxGeometry x="480" y="920" width="120" height="40" as="geometry" />
        </mxCell>
        <mxCell id="NLQhdIlpftVUfZZyK4by-63" value="No" style="text;html=1;strokeColor=none;fillColor=none;align=center;verticalAlign=middle;whiteSpace=wrap;rounded=0;" vertex="1" parent="1">
          <mxGeometry x="600" y="670" width="30" height="20" as="geometry" />
        </mxCell>
        <mxCell id="NLQhdIlpftVUfZZyK4by-64" value="Yes" style="text;html=1;strokeColor=none;fillColor=none;align=center;verticalAlign=middle;whiteSpace=wrap;rounded=0;" vertex="1" parent="1">
          <mxGeometry x="500" y="720" width="30" height="20" as="geometry" />
        </mxCell>
        <mxCell id="NLQhdIlpftVUfZZyK4by-91" style="edgeStyle=orthogonalEdgeStyle;rounded=0;orthogonalLoop=1;jettySize=auto;html=1;exitX=0.5;exitY=1;exitDx=0;exitDy=0;entryX=0.5;entryY=0;entryDx=0;entryDy=0;" edge="1" parent="1" source="NLQhdIlpftVUfZZyK4by-66" target="NLQhdIlpftVUfZZyK4by-73">
          <mxGeometry relative="1" as="geometry" />
        </mxCell>
        <mxCell id="NLQhdIlpftVUfZZyK4by-66" value="Add Username &amp;amp; Password" style="rounded=1;whiteSpace=wrap;html=1;fillColor=#dae8fc;strokeColor=#6c8ebf;" vertex="1" parent="1">
          <mxGeometry x="840" y="200" width="120" height="40" as="geometry" />
        </mxCell>
        <mxCell id="NLQhdIlpftVUfZZyK4by-133" style="edgeStyle=orthogonalEdgeStyle;rounded=0;orthogonalLoop=1;jettySize=auto;html=1;exitX=0.5;exitY=1;exitDx=0;exitDy=0;entryX=0.5;entryY=0;entryDx=0;entryDy=0;" edge="1" parent="1" source="NLQhdIlpftVUfZZyK4by-67" target="NLQhdIlpftVUfZZyK4by-116">
          <mxGeometry relative="1" as="geometry" />
        </mxCell>
        <mxCell id="NLQhdIlpftVUfZZyK4by-67" value="View Saved Passwords" style="rounded=1;whiteSpace=wrap;html=1;fillColor=#dae8fc;strokeColor=#6c8ebf;" vertex="1" parent="1">
          <mxGeometry x="1240" y="200" width="120" height="40" as="geometry" />
        </mxCell>
        <mxCell id="NLQhdIlpftVUfZZyK4by-71" style="edgeStyle=orthogonalEdgeStyle;rounded=0;orthogonalLoop=1;jettySize=auto;html=1;exitX=0.5;exitY=1;exitDx=0;exitDy=0;entryX=0.5;entryY=0;entryDx=0;entryDy=0;" edge="1" parent="1" source="NLQhdIlpftVUfZZyK4by-68" target="NLQhdIlpftVUfZZyK4by-69">
          <mxGeometry relative="1" as="geometry" />
        </mxCell>
        <mxCell id="NLQhdIlpftVUfZZyK4by-68" value="Logout" style="rounded=1;whiteSpace=wrap;html=1;fillColor=#dae8fc;strokeColor=#6c8ebf;" vertex="1" parent="1">
          <mxGeometry x="1600" y="200" width="120" height="40" as="geometry" />
        </mxCell>
        <mxCell id="NLQhdIlpftVUfZZyK4by-72" style="edgeStyle=orthogonalEdgeStyle;rounded=0;orthogonalLoop=1;jettySize=auto;html=1;exitX=0.5;exitY=1;exitDx=0;exitDy=0;entryX=0.5;entryY=0;entryDx=0;entryDy=0;" edge="1" parent="1" source="NLQhdIlpftVUfZZyK4by-69" target="NLQhdIlpftVUfZZyK4by-70">
          <mxGeometry relative="1" as="geometry" />
        </mxCell>
        <mxCell id="NLQhdIlpftVUfZZyK4by-69" value="Export Users to File" style="ellipse;whiteSpace=wrap;html=1;fillColor=#f8cecc;strokeColor=#b85450;" vertex="1" parent="1">
          <mxGeometry x="1600" y="280" width="120" height="40" as="geometry" />
        </mxCell>
        <mxCell id="NLQhdIlpftVUfZZyK4by-70" value="End Application" style="ellipse;whiteSpace=wrap;html=1;fillColor=#f8cecc;strokeColor=#b85450;" vertex="1" parent="1">
          <mxGeometry x="1600" y="360" width="120" height="40" as="geometry" />
        </mxCell>
        <mxCell id="NLQhdIlpftVUfZZyK4by-75" style="edgeStyle=orthogonalEdgeStyle;rounded=0;orthogonalLoop=1;jettySize=auto;html=1;exitX=1;exitY=0.5;exitDx=0;exitDy=0;entryX=0;entryY=0.5;entryDx=0;entryDy=0;" edge="1" parent="1" source="NLQhdIlpftVUfZZyK4by-73" target="NLQhdIlpftVUfZZyK4by-74">
          <mxGeometry relative="1" as="geometry" />
        </mxCell>
        <mxCell id="NLQhdIlpftVUfZZyK4by-94" style="edgeStyle=orthogonalEdgeStyle;rounded=0;orthogonalLoop=1;jettySize=auto;html=1;exitX=0.5;exitY=1;exitDx=0;exitDy=0;" edge="1" parent="1" source="NLQhdIlpftVUfZZyK4by-73" target="NLQhdIlpftVUfZZyK4by-78">
          <mxGeometry relative="1" as="geometry" />
        </mxCell>
        <mxCell id="NLQhdIlpftVUfZZyK4by-73" value="Is a user logged in" style="rhombus;whiteSpace=wrap;html=1;perimeterSpacing=0;fontSize=10;fillColor=#f5f5f5;fontColor=#333333;strokeColor=#666666;" vertex="1" parent="1">
          <mxGeometry x="840" y="280" width="120" height="80" as="geometry" />
        </mxCell>
        <mxCell id="NLQhdIlpftVUfZZyK4by-74" value="Error Message" style="rounded=0;whiteSpace=wrap;html=1;fillColor=#d5e8d4;strokeColor=#82b366;" vertex="1" parent="1">
          <mxGeometry x="1000" y="300" width="120" height="40" as="geometry" />
        </mxCell>
        <mxCell id="NLQhdIlpftVUfZZyK4by-106" style="edgeStyle=orthogonalEdgeStyle;rounded=0;orthogonalLoop=1;jettySize=auto;html=1;exitX=0.5;exitY=1;exitDx=0;exitDy=0;entryX=0.5;entryY=0;entryDx=0;entryDy=0;" edge="1" parent="1" source="NLQhdIlpftVUfZZyK4by-78" target="NLQhdIlpftVUfZZyK4by-101">
          <mxGeometry relative="1" as="geometry" />
        </mxCell>
        <mxCell id="NLQhdIlpftVUfZZyK4by-78" value="Open Window" style="ellipse;whiteSpace=wrap;html=1;fillColor=#f8cecc;strokeColor=#b85450;" vertex="1" parent="1">
          <mxGeometry x="840" y="400" width="120" height="40" as="geometry" />
        </mxCell>
        <mxCell id="NLQhdIlpftVUfZZyK4by-81" style="edgeStyle=orthogonalEdgeStyle;rounded=0;orthogonalLoop=1;jettySize=auto;html=1;exitX=0.5;exitY=1;exitDx=0;exitDy=0;entryX=0.5;entryY=0;entryDx=0;entryDy=0;" edge="1" parent="1" source="NLQhdIlpftVUfZZyK4by-79" target="NLQhdIlpftVUfZZyK4by-7">
          <mxGeometry relative="1" as="geometry" />
        </mxCell>
        <mxCell id="NLQhdIlpftVUfZZyK4by-79" value="Open Window" style="ellipse;whiteSpace=wrap;html=1;fillColor=#f8cecc;strokeColor=#b85450;" vertex="1" parent="1">
          <mxGeometry x="80" y="400" width="120" height="40" as="geometry" />
        </mxCell>
        <mxCell id="NLQhdIlpftVUfZZyK4by-85" style="edgeStyle=orthogonalEdgeStyle;rounded=0;orthogonalLoop=1;jettySize=auto;html=1;exitX=0.5;exitY=1;exitDx=0;exitDy=0;entryX=0.5;entryY=0;entryDx=0;entryDy=0;" edge="1" parent="1" source="NLQhdIlpftVUfZZyK4by-83" target="NLQhdIlpftVUfZZyK4by-79">
          <mxGeometry relative="1" as="geometry" />
        </mxCell>
        <mxCell id="NLQhdIlpftVUfZZyK4by-88" style="edgeStyle=orthogonalEdgeStyle;rounded=0;orthogonalLoop=1;jettySize=auto;html=1;exitX=1;exitY=0.5;exitDx=0;exitDy=0;entryX=0;entryY=0.5;entryDx=0;entryDy=0;" edge="1" parent="1" source="NLQhdIlpftVUfZZyK4by-83" target="NLQhdIlpftVUfZZyK4by-87">
          <mxGeometry relative="1" as="geometry" />
        </mxCell>
        <mxCell id="NLQhdIlpftVUfZZyK4by-83" value="Is a user logged in" style="rhombus;whiteSpace=wrap;html=1;fillColor=#f5f5f5;fontColor=#333333;strokeColor=#666666;fontSize=10;" vertex="1" parent="1">
          <mxGeometry x="80" y="280" width="120" height="80" as="geometry" />
        </mxCell>
        <mxCell id="NLQhdIlpftVUfZZyK4by-87" value="Error Message" style="rounded=0;whiteSpace=wrap;html=1;fillColor=#d5e8d4;strokeColor=#82b366;" vertex="1" parent="1">
          <mxGeometry x="240" y="300" width="120" height="40" as="geometry" />
        </mxCell>
        <mxCell id="NLQhdIlpftVUfZZyK4by-89" value="Yes" style="text;html=1;strokeColor=none;fillColor=none;align=center;verticalAlign=middle;whiteSpace=wrap;rounded=0;" vertex="1" parent="1">
          <mxGeometry x="200" y="290" width="30" height="20" as="geometry" />
        </mxCell>
        <mxCell id="NLQhdIlpftVUfZZyK4by-90" value="No" style="text;html=1;strokeColor=none;fillColor=none;align=center;verticalAlign=middle;whiteSpace=wrap;rounded=0;" vertex="1" parent="1">
          <mxGeometry x="100" y="360" width="30" height="20" as="geometry" />
        </mxCell>
        <mxCell id="NLQhdIlpftVUfZZyK4by-92" value="No" style="text;html=1;strokeColor=none;fillColor=none;align=center;verticalAlign=middle;whiteSpace=wrap;rounded=0;" vertex="1" parent="1">
          <mxGeometry x="960" y="290" width="30" height="20" as="geometry" />
        </mxCell>
        <mxCell id="NLQhdIlpftVUfZZyK4by-93" value="Yes" style="text;html=1;strokeColor=none;fillColor=none;align=center;verticalAlign=middle;whiteSpace=wrap;rounded=0;" vertex="1" parent="1">
          <mxGeometry x="860" y="360" width="30" height="20" as="geometry" />
        </mxCell>
        <mxCell id="NLQhdIlpftVUfZZyK4by-97" style="edgeStyle=orthogonalEdgeStyle;rounded=0;orthogonalLoop=1;jettySize=auto;html=1;exitX=0.5;exitY=1;exitDx=0;exitDy=0;" edge="1" parent="1" source="NLQhdIlpftVUfZZyK4by-95" target="NLQhdIlpftVUfZZyK4by-34">
          <mxGeometry relative="1" as="geometry" />
        </mxCell>
        <mxCell id="NLQhdIlpftVUfZZyK4by-95" value="Open Window" style="ellipse;whiteSpace=wrap;html=1;fillColor=#f8cecc;strokeColor=#b85450;" vertex="1" parent="1">
          <mxGeometry x="480" y="280" width="120" height="40" as="geometry" />
        </mxCell>
        <mxCell id="NLQhdIlpftVUfZZyK4by-99" style="edgeStyle=orthogonalEdgeStyle;rounded=0;orthogonalLoop=1;jettySize=auto;html=1;exitX=1;exitY=0.5;exitDx=0;exitDy=0;entryX=0;entryY=0.5;entryDx=0;entryDy=0;" edge="1" parent="1" source="NLQhdIlpftVUfZZyK4by-101" target="NLQhdIlpftVUfZZyK4by-102">
          <mxGeometry relative="1" as="geometry" />
        </mxCell>
        <mxCell id="NLQhdIlpftVUfZZyK4by-100" style="edgeStyle=orthogonalEdgeStyle;rounded=0;orthogonalLoop=1;jettySize=auto;html=1;exitX=0.5;exitY=1;exitDx=0;exitDy=0;" edge="1" parent="1" source="NLQhdIlpftVUfZZyK4by-101" target="NLQhdIlpftVUfZZyK4by-103">
          <mxGeometry relative="1" as="geometry" />
        </mxCell>
        <mxCell id="NLQhdIlpftVUfZZyK4by-101" value="Are any fields empty" style="rhombus;whiteSpace=wrap;html=1;perimeterSpacing=0;fontSize=10;fillColor=#f5f5f5;fontColor=#333333;strokeColor=#666666;" vertex="1" parent="1">
          <mxGeometry x="840" y="480" width="120" height="80" as="geometry" />
        </mxCell>
        <mxCell id="NLQhdIlpftVUfZZyK4by-102" value="Error Message" style="rounded=0;whiteSpace=wrap;html=1;fillColor=#d5e8d4;strokeColor=#82b366;" vertex="1" parent="1">
          <mxGeometry x="1000" y="500" width="120" height="40" as="geometry" />
        </mxCell>
        <mxCell id="NLQhdIlpftVUfZZyK4by-111" style="edgeStyle=orthogonalEdgeStyle;rounded=0;orthogonalLoop=1;jettySize=auto;html=1;exitX=0.5;exitY=1;exitDx=0;exitDy=0;entryX=0.5;entryY=0;entryDx=0;entryDy=0;" edge="1" parent="1" source="NLQhdIlpftVUfZZyK4by-103" target="NLQhdIlpftVUfZZyK4by-112">
          <mxGeometry relative="1" as="geometry" />
        </mxCell>
        <mxCell id="NLQhdIlpftVUfZZyK4by-103" value="Encrypt and add &lt;br&gt;data to users &lt;br&gt;storage array" style="ellipse;whiteSpace=wrap;html=1;fillColor=#f8cecc;strokeColor=#b85450;" vertex="1" parent="1">
          <mxGeometry x="840" y="600" width="120" height="80" as="geometry" />
        </mxCell>
        <mxCell id="NLQhdIlpftVUfZZyK4by-107" value="No" style="text;html=1;strokeColor=none;fillColor=none;align=center;verticalAlign=middle;whiteSpace=wrap;rounded=0;" vertex="1" parent="1">
          <mxGeometry x="860" y="560" width="30" height="20" as="geometry" />
        </mxCell>
        <mxCell id="NLQhdIlpftVUfZZyK4by-108" value="Yes" style="text;html=1;strokeColor=none;fillColor=none;align=center;verticalAlign=middle;whiteSpace=wrap;rounded=0;" vertex="1" parent="1">
          <mxGeometry x="960" y="490" width="30" height="20" as="geometry" />
        </mxCell>
        <mxCell id="NLQhdIlpftVUfZZyK4by-110" value="Close Window" style="ellipse;whiteSpace=wrap;html=1;fillColor=#dae8fc;strokeColor=#6c8ebf;" vertex="1" parent="1">
          <mxGeometry x="840" y="800" width="120" height="40" as="geometry" />
        </mxCell>
        <mxCell id="NLQhdIlpftVUfZZyK4by-113" style="edgeStyle=orthogonalEdgeStyle;rounded=0;orthogonalLoop=1;jettySize=auto;html=1;exitX=0.5;exitY=1;exitDx=0;exitDy=0;entryX=0.5;entryY=0;entryDx=0;entryDy=0;" edge="1" parent="1" source="NLQhdIlpftVUfZZyK4by-112" target="NLQhdIlpftVUfZZyK4by-110">
          <mxGeometry relative="1" as="geometry" />
        </mxCell>
        <mxCell id="NLQhdIlpftVUfZZyK4by-112" value="Addition Successful" style="rounded=0;whiteSpace=wrap;html=1;fillColor=#d5e8d4;strokeColor=#82b366;" vertex="1" parent="1">
          <mxGeometry x="840" y="720" width="120" height="40" as="geometry" />
        </mxCell>
        <mxCell id="NLQhdIlpftVUfZZyK4by-114" style="edgeStyle=orthogonalEdgeStyle;rounded=0;orthogonalLoop=1;jettySize=auto;html=1;exitX=1;exitY=0.5;exitDx=0;exitDy=0;entryX=0;entryY=0.5;entryDx=0;entryDy=0;" edge="1" parent="1" source="NLQhdIlpftVUfZZyK4by-116" target="NLQhdIlpftVUfZZyK4by-117">
          <mxGeometry relative="1" as="geometry" />
        </mxCell>
        <mxCell id="NLQhdIlpftVUfZZyK4by-115" style="edgeStyle=orthogonalEdgeStyle;rounded=0;orthogonalLoop=1;jettySize=auto;html=1;exitX=0.5;exitY=1;exitDx=0;exitDy=0;" edge="1" parent="1" source="NLQhdIlpftVUfZZyK4by-116" target="NLQhdIlpftVUfZZyK4by-119">
          <mxGeometry relative="1" as="geometry" />
        </mxCell>
        <mxCell id="NLQhdIlpftVUfZZyK4by-116" value="Are tehere any &lt;br&gt;saved passwords" style="rhombus;whiteSpace=wrap;html=1;perimeterSpacing=0;fontSize=10;fillColor=#f5f5f5;fontColor=#333333;strokeColor=#666666;" vertex="1" parent="1">
          <mxGeometry x="1240" y="280" width="120" height="80" as="geometry" />
        </mxCell>
        <mxCell id="NLQhdIlpftVUfZZyK4by-117" value="Error Message" style="rounded=0;whiteSpace=wrap;html=1;fillColor=#d5e8d4;strokeColor=#82b366;" vertex="1" parent="1">
          <mxGeometry x="1400" y="300" width="120" height="40" as="geometry" />
        </mxCell>
        <mxCell id="NLQhdIlpftVUfZZyK4by-135" style="edgeStyle=orthogonalEdgeStyle;rounded=0;orthogonalLoop=1;jettySize=auto;html=1;exitX=0.5;exitY=1;exitDx=0;exitDy=0;entryX=0.5;entryY=0;entryDx=0;entryDy=0;" edge="1" parent="1" source="NLQhdIlpftVUfZZyK4by-119" target="NLQhdIlpftVUfZZyK4by-127">
          <mxGeometry relative="1" as="geometry" />
        </mxCell>
        <mxCell id="NLQhdIlpftVUfZZyK4by-119" value="Open Window" style="ellipse;whiteSpace=wrap;html=1;fillColor=#f8cecc;strokeColor=#b85450;" vertex="1" parent="1">
          <mxGeometry x="1240" y="400" width="120" height="40" as="geometry" />
        </mxCell>
        <mxCell id="NLQhdIlpftVUfZZyK4by-120" value="No" style="text;html=1;strokeColor=none;fillColor=none;align=center;verticalAlign=middle;whiteSpace=wrap;rounded=0;" vertex="1" parent="1">
          <mxGeometry x="1360" y="290" width="30" height="20" as="geometry" />
        </mxCell>
        <mxCell id="NLQhdIlpftVUfZZyK4by-126" style="edgeStyle=orthogonalEdgeStyle;rounded=0;orthogonalLoop=1;jettySize=auto;html=1;exitX=0.5;exitY=1;exitDx=0;exitDy=0;entryX=0.5;entryY=0;entryDx=0;entryDy=0;" edge="1" parent="1" source="NLQhdIlpftVUfZZyK4by-127" target="NLQhdIlpftVUfZZyK4by-132">
          <mxGeometry relative="1" as="geometry" />
        </mxCell>
        <mxCell id="NLQhdIlpftVUfZZyK4by-127" value="Decrypt all saved&lt;br&gt;and parse as&lt;br&gt;printable string" style="ellipse;whiteSpace=wrap;html=1;fillColor=#f8cecc;strokeColor=#b85450;" vertex="1" parent="1">
          <mxGeometry x="1240" y="480" width="120" height="80" as="geometry" />
        </mxCell>
        <mxCell id="NLQhdIlpftVUfZZyK4by-130" value="Close Window" style="ellipse;whiteSpace=wrap;html=1;fillColor=#dae8fc;strokeColor=#6c8ebf;" vertex="1" parent="1">
          <mxGeometry x="1240" y="680" width="120" height="40" as="geometry" />
        </mxCell>
        <mxCell id="NLQhdIlpftVUfZZyK4by-131" style="edgeStyle=orthogonalEdgeStyle;rounded=0;orthogonalLoop=1;jettySize=auto;html=1;exitX=0.5;exitY=1;exitDx=0;exitDy=0;entryX=0.5;entryY=0;entryDx=0;entryDy=0;" edge="1" parent="1" source="NLQhdIlpftVUfZZyK4by-132" target="NLQhdIlpftVUfZZyK4by-130">
          <mxGeometry relative="1" as="geometry" />
        </mxCell>
        <mxCell id="NLQhdIlpftVUfZZyK4by-132" value="Printable String" style="rounded=0;whiteSpace=wrap;html=1;fillColor=#d5e8d4;strokeColor=#82b366;" vertex="1" parent="1">
          <mxGeometry x="1240" y="600" width="120" height="40" as="geometry" />
        </mxCell>
        <mxCell id="NLQhdIlpftVUfZZyK4by-140" value="Yes" style="text;html=1;strokeColor=none;fillColor=none;align=center;verticalAlign=middle;whiteSpace=wrap;rounded=0;" vertex="1" parent="1">
          <mxGeometry x="1260" y="360" width="30" height="20" as="geometry" />
        </mxCell>
      </root>
    </mxGraphModel>
  </diagram>
</mxfile>
